<?xml version="1.0" encoding="UTF-8" standalone="no"?>
<!-- Created with Inkscape (http://www.inkscape.org/) -->

<svg
   width="210mm"
   height="297mm"
   viewBox="0 0 210 297"
   version="1.1"
   id="svg1"
   inkscape:version="1.2.2 (732a01da63, 2022-12-09)"
   sodipodi:docname="IndaiaSpots.svg"
   xmlns:inkscape="http://www.inkscape.org/namespaces/inkscape"
   xmlns:sodipodi="http://sodipodi.sourceforge.net/DTD/sodipodi-0.dtd"
   xmlns="http://www.w3.org/2000/svg"
   xmlns:svg="http://www.w3.org/2000/svg">
  <sodipodi:namedview
     id="namedview1"
     pagecolor="#ffffff"
     bordercolor="#000000"
     borderopacity="0.25"
     inkscape:showpageshadow="2"
     inkscape:pageopacity="0.0"
     inkscape:pagecheckerboard="0"
     inkscape:deskcolor="#d1d1d1"
     inkscape:document-units="mm"
     showguides="true"
     inkscape:zoom="0.59870805"
     inkscape:cx="253.88"
     inkscape:cy="584.59211"
     inkscape:window-width="1440"
     inkscape:window-height="829"
     inkscape:window-x="-8"
     inkscape:window-y="-8"
     inkscape:window-maximized="1"
     inkscape:current-layer="g31"
     showgrid="false" />
  <defs
     id="defs1">
    <linearGradient
       id="linearGradient10816"
       inkscape:swatch="solid">
      <stop
         style="stop-color:#ee1a1a;stop-opacity:1;"
         offset="0"
         id="stop10814" />
    </linearGradient>
    <inkscape:path-effect
       effect="fillet_chamfer"
       id="path-effect26"
       is_visible="true"
       lpeversion="1"
       nodesatellites_param="F,0,0,1,0,0,0,1 @ F,0,0,1,0,0,0,1 @ F,0,0,1,0,0,0,1 @ F,0,0,1,0,0,0,1 @ F,0,0,1,0,0,0,1 @ F,0,0,1,0,0,0,1 @ F,0,0,1,0,0,0,1 @ F,0,0,1,0,0,0,1 @ F,0,0,1,0,0,0,1 @ F,0,0,1,0,0,0,1 @ F,0,0,1,0,6.7528435,0,1 @ F,0,0,1,0,0,0,1 @ F,0,0,1,0,0.39246117,0,1 @ F,0,1,1,0,0.39246117,0,1 @ F,0,1,1,0,0.39246117,0,1 @ F,0,0,1,0,0,0,1 @ F,0,0,1,0,0,0,1 @ F,0,0,1,0,0,0,1 @ F,0,0,1,0,0,0,1 @ F,0,0,1,0,0,0,1 @ F,0,0,1,0,0,0,1 @ F,0,0,1,0,0,0,1 @ F,0,0,1,0,0,0,1 @ F,0,0,1,0,0,0,1 @ F,0,0,1,0,0,0,1 @ F,0,0,1,0,0,0,1 @ F,0,0,1,0,0,0,1 @ F,0,0,1,0,0,0,1 | F,0,0,1,0,0,0,1 @ F,0,0,1,0,0,0,1 @ F,0,0,1,0,0,0,1 @ F,0,0,1,0,0,0,1 @ F,0,0,1,0,0,0,1 @ F,0,0,1,0,0,0,1 @ F,0,0,1,0,0,0,1 @ F,0,0,1,0,0,0,1 @ F,0,0,1,0,0,0,1 @ F,0,0,1,0,0,0,1 @ F,0,0,1,0,0,0,1 @ F,0,0,1,0,0,0,1 @ F,0,0,1,0,0,0,1 @ F,0,0,1,0,0,0,1 @ F,0,0,1,0,0,0,1 @ F,0,0,1,0,0,0,1 @ F,0,0,1,0,0,0,1 @ F,0,0,1,0,0,0,1 @ F,0,0,1,0,5.9073096,0,1 @ F,0,0,1,0,0,0,1 @ F,0,0,1,0,0,0,1 @ F,0,0,1,0,0,0,1 @ F,0,0,1,0,5.9073096,0,1 @ F,0,0,1,0,0,0,1 @ F,0,0,1,0,0,0,1 @ F,0,0,1,0,0,0,1 @ F,0,0,1,0,0,0,1 @ F,0,0,1,0,0,0,1 @ F,0,0,1,0,0,0,1 @ F,0,0,1,0,0,0,1 @ F,0,0,1,0,0,0,1"
       radius="0"
       unit="px"
       method="auto"
       mode="F"
       chamfer_steps="1"
       flexible="false"
       use_knot_distance="true"
       apply_no_radius="true"
       apply_with_radius="true"
       only_selected="false"
       hide_knots="false" />
    <inkscape:path-effect
       effect="fillet_chamfer"
       id="path-effect21"
       is_visible="true"
       lpeversion="1"
       nodesatellites_param="F,0,0,1,0,0,0,1 @ F,0,0,1,0,4.1252471,0,1 @ F,0,0,1,0,0,0,1 @ F,0,0,1,0,0,0,1 @ F,0,0,1,0,0,0,1 @ F,0,0,1,0,3.904015,0,1 @ F,0,0,1,0,2.5826335,0,1 @ F,0,0,1,0,0,0,1 @ F,0,0,1,0,0,0,1 @ F,0,0,1,0,2.6281649,0,1 @ F,0,0,1,0,0,0,1 @ F,0,0,1,0,0,0,1"
       radius="0"
       unit="px"
       method="auto"
       mode="F"
       chamfer_steps="1"
       flexible="false"
       use_knot_distance="true"
       apply_no_radius="true"
       apply_with_radius="true"
       only_selected="false"
       hide_knots="false" />
    <inkscape:path-effect
       effect="fillet_chamfer"
       id="path-effect20"
       is_visible="true"
       lpeversion="1"
       nodesatellites_param="F,0,0,1,0,0,0,1 @ F,0,0,1,0,3.4298051,0,1 @ F,0,0,1,0,0,0,1 @ F,0,0,1,0,0,0,1 @ F,0,0,1,0,11.839309,0,1 @ F,0,0,1,0,0,0,1 @ F,0,0,1,0,3.2832083,0,1 @ F,0,0,1,0,0,0,1"
       radius="0"
       unit="px"
       method="auto"
       mode="F"
       chamfer_steps="1"
       flexible="false"
       use_knot_distance="true"
       apply_no_radius="true"
       apply_with_radius="true"
       only_selected="false"
       hide_knots="false" />
    <inkscape:path-effect
       effect="fillet_chamfer"
       id="path-effect19"
       is_visible="true"
       lpeversion="1"
       nodesatellites_param="F,0,0,1,0,0,0,1 @ F,0,0,1,0,0,0,1 @ F,0,0,1,0,0,0,1 @ F,0,0,1,0,0,0,1 @ F,0,0,1,0,0,0,1 @ F,0,0,1,0,0,0,1 @ F,0,0,1,0,0,0,1 @ F,0,0,1,0,0,0,1"
       radius="0"
       unit="px"
       method="auto"
       mode="F"
       chamfer_steps="1"
       flexible="false"
       use_knot_distance="true"
       apply_no_radius="true"
       apply_with_radius="true"
       only_selected="false"
       hide_knots="false" />
    <inkscape:path-effect
       effect="fillet_chamfer"
       id="path-effect18"
       is_visible="true"
       lpeversion="1"
       nodesatellites_param="F,0,0,1,0,0,0,1 @ F,0,0,1,0,5.0124748,0,1 @ F,0,0,1,0,0,0,1 @ F,0,0,1,0,0,0,1 @ F,0,0,1,0,0,0,1 @ F,0,0,1,0,0,0,1"
       radius="0"
       unit="px"
       method="auto"
       mode="F"
       chamfer_steps="1"
       flexible="false"
       use_knot_distance="true"
       apply_no_radius="true"
       apply_with_radius="true"
       only_selected="false"
       hide_knots="false" />
    <inkscape:path-effect
       effect="fillet_chamfer"
       id="path-effect17"
       is_visible="true"
       lpeversion="1"
       nodesatellites_param="F,0,0,1,0,0,0,1 @ F,0,0,1,0,1.3241931,0,1 @ F,0,0,1,0,0,0,1 @ F,0,0,1,0,0,0,1 @ F,0,0,1,0,5.4083737,0,1 @ F,0,0,1,0,0,0,1 @ F,0,0,1,0,3.6188566,0,1 @ F,0,0,1,0,0,0,1"
       radius="0"
       unit="px"
       method="auto"
       mode="F"
       chamfer_steps="1"
       flexible="false"
       use_knot_distance="true"
       apply_no_radius="true"
       apply_with_radius="true"
       only_selected="false"
       hide_knots="false" />
  </defs>
  <g
     inkscape:groupmode="layer"
     id="layer3"
     inkscape:label="Camada 3">
    <g
       id="g31"
       style="fill:#000000;fill-opacity:1;fill-rule:evenodd"
       transform="matrix(1.9907312,0,0,1.8560158,-103.54935,-163.07984)">
      <path
         style="fill:#ee1a1a;fill-opacity:1;fill-rule:evenodd;stroke:#ee1a1a;stroke-width:20;stroke-linecap:round;stroke-linejoin:round;paint-order:fill markers stroke;stroke-opacity:1"
         d="M 303.99742,807.98981 C 223.09962,676.05134 213.09875,658.9928 213.03273,652.83069 c -0.0799,-7.45792 3.32308,-12.63943 10.77859,-16.4119 3.09607,-1.56659 25.06729,-2.42158 84.75138,-3.29802 l 80.57176,-1.18316 0.436,69.86198 0.43599,69.86199 h 5.84592 5.84592 v -81.84289 -81.8429 l -4.61684,-9.39755 c -8.9546,-18.227 -28.87234,-32.01512 -55.12229,-38.15858 -26.50741,-6.20373 -45.0027,-7.1369 -116.69156,-5.88769 l -67.86359,1.18256 -7.16154,-6.4395 c -11.58652,-10.41835 -28.62107,-48.59955 -36.15485,-81.03741 -4.42908,-19.07011 -3.88286,-68.40082 1.01417,-91.59328 4.70817,-22.29798 10.12331,-38.493 19.5229,-58.38701 52.06394,-110.19218 185.07681,-177.4836 308.83018,-156.23769 133.21981,22.87111 222.12989,110.00536 238.14283,233.38637 3.31569,25.54771 13.19151,23.16645 -93.80776,22.61897 l -89.74384,-0.45919 -6.38682,-5.17025 c -4.04128,-3.27149 -9.46503,-10.91366 -14.76865,-20.80934 -10.82783,-20.20295 -22.6591,-32.42017 -39.28168,-40.56312 -28.50996,-13.96623 -65.76292,-11.39319 -92.55897,6.39303 -19.41108,12.88432 -32.43531,32.87363 -36.37021,55.82016 -1.76051,10.26652 -1.66825,13.99585 0.62003,25.06221 6.61164,31.9746 25.3796,53.02901 57.75465,64.79068 l 11.26016,4.09078 136.96158,-0.41707 c 100.16307,-0.305 137.91523,0.0954 140.51104,1.48984 4.74263,2.54792 5.79897,7.4526 2.83858,13.1798 -5.0603,9.78976 -261.98023,434.7927 -262.83809,434.79292 -0.49489,1.3e-4 -41.80053,-66.7059 -91.7903,-148.23562 z"
         id="path1679"
         transform="matrix(0.13290761,0,0,0.14255446,52.015737,87.865545)" />
      <path
         style="fill:#000000;fill-opacity:1;fill-rule:evenodd;color:#000000;stroke-width:20;stroke-linecap:round;stroke-dasharray:none"
         d="m 104.65572,177.39258 a 0.77768849,0.52916664 0 0 0 -0.77788,0.52735 v 19.54492 a 0.77768849,0.52916664 0 0 0 0.77788,0.52734 0.77768849,0.52916664 0 0 0 0.77787,-0.52734 v -19.54492 a 0.77768849,0.52916664 0 0 0 -0.77787,-0.52735 z"
         id="path15" />
      <path
         style="fill:#000000;fill-opacity:1;fill-rule:evenodd;color:#000000;-inkscape-stroke:none"
         d="m 104.90234,108.74414 c -20.5445,-0.24459 -40.110839,16.9011 -39.861324,39.75195 -0.26866,6.53917 1.908002,11.95173 3.867187,16.28321 0.334784,0.74015 0.867765,1.60276 1.533203,2.3457 0.662744,0.73994 1.472034,1.41396 2.476563,1.54102 2.076637,0.26268 5.028126,0.0928 8.359375,-0.0664 3.331662,-0.15921 7.02557,-0.31869 10.4375,-0.0859 3.411332,0.23272 6.533327,0.87474 8.707036,2.19727 1.97928,1.20424 3.16022,2.94119 3.35742,5.6582 l -20.761722,0.15234 c -3.401701,0.0248 -5.546253,3.751 -3.859375,6.70508 l 24.791017,43.41406 0.002,0.004 c 0.28067,0.47131 1.00225,0.49597 1.31446,0.0449 l 0.006,-0.01 0.006,-0.01 c 0.0783,-0.12397 0.15169,-0.25046 0.21875,-0.38086 l 0.01,-0.0195 35.38086,-62.87695 c 0.10379,-0.18445 0.28123,-0.48102 0.39062,-0.76563 0.7781,-2.02433 -0.74178,-4.32288 -2.98632,-4.30859 l -34.96289,0.22461 c -1.40632,-0.19081 -3.546585,-0.92184 -5.3287,-2.48015 -1.788133,-1.56358 -3.253854,-3.92596 -3.443359,-7.56836 0.06033,-5.98678 4.973337,-10.401 10.410159,-10.16992 h 0.0117 0.0215 0.0215 0.01 c 4.359,-0.17773 7.66132,2.79882 9.10742,6.66015 0.84218,2.24874 2.84984,4.31015 5.4336,4.3086 l 21.73437,-0.0117 c 1.85261,-0.001 3.35332,-1.56611 3.18164,-3.42969 -1.40753,-15.27818 -8.73461,-24.69213 -16.98437,-30.16601 -8.24014,-5.46748 -17.33554,-7.06318 -22.58985,-6.94141 z m 0,1.55859 h 0.002 0.004 0.006 0.01 0.008 c 4.88659,-0.11686 13.7896,1.4257 21.71094,6.68165 7.92218,5.25651 14.9251,14.16402 16.29297,29.01171 0.0908,0.98595 -0.61743,1.72596 -1.62891,1.72657 l -21.73437,0.0117 c -1.71885,8.6e-4 -3.31106,-1.52506 -3.97461,-3.29687 -1.62745,-4.34558 -5.51012,-7.85605 -10.59571,-7.66602 -6.310783,-0.25048 -11.944791,4.8921 -12.005856,11.72266 v 0.002 0.01 0.0195 l 0.002,0.0137 c 0.201148,4.05433 1.904373,6.88531 3.976562,8.69727 2.070274,1.81028 4.464164,2.63251 6.177734,2.85937 h 0.004 l 0.0547,0.006 35.08984,-0.22461 c 1.28206,-0.008 2.0467,1.29076 1.41797,2.40821 l -35.09961,62.38476 -24.105471,-42.21094 c -1.122551,-1.96563 0.257948,-4.36462 2.521484,-4.38086 l 22.398437,-0.16015 v -0.77149 -0.002 c 0.015,-3.6606 -1.65839,-6.21853 -4.20117,-7.76562 -1.03925,-0.63231 -2.214542,-1.11093 -3.48047,-1.47266 -3.263654,-0.93257 -8.589179,-1.1177 -11.884766,-1.04297 -1.599012,0.0363 -3.172753,0.10651 -4.664062,0.17774 -3.336492,0.15945 -6.291164,0.30567 -8.089844,0.0781 -0.356238,-0.045 -0.976485,-0.43976 -1.509765,-1.03516 -0.535709,-0.5981 -1.011068,-1.3672 -1.273438,-1.94726 -1.939483,-4.28792 -3.990643,-9.43435 -3.730469,-15.60547 v -0.01 -0.0176 -0.01 -0.002 c -0.246517,-21.96332 18.628578,-38.43327 38.302734,-38.18946 z m 0.0879,26.96289 h 0.0195 c -0.003,-1.1e-4 -0.005,0.002 -0.008,0.002 -0.004,1.6e-4 -0.008,-0.002 -0.0117,-0.002 z"
         id="path38" />
    </g>
  </g>
</svg>
